<?xml version="1.0" encoding="UTF-8"?>
<svg id="Calque_2" data-name="Calque 2" xmlns="http://www.w3.org/2000/svg" viewBox="0 0 661.02 679">
  <defs>
    <style>
      .cls-1 {
        fill: #52b050;
      }

      .cls-2 {
        fill: #ab2a29;
      }

      .cls-3 {
        letter-spacing: -.07em;
      }

      .cls-4 {
        fill: #1d1d1b;
        font-family: Arial-BoldMT, Arial;
        font-size: 120.62px;
        font-weight: 700;
      }
    </style>
  </defs>
  <path d="M410,42c-28.54-8.43-118.27-31.06-187,16-104.36,71.46-90.92,256.1-23,367,53.79,87.82,177.72,188.13,282.94,145.68,69.39-27.99,97.73-104.78,106.06-130.68-.61,20.69-4.81,60.89-31,100-41.09,61.37-108.61,78.72-137.33,82.93-121.37,17.83-251.45-95.78-300.4-219.24C71.61,280.97,78.64,86.75,198.59,26.28c86-43.36,187.16,3.68,211.41,15.72Z"/>
  <path class="cls-1" d="M174,18c-26.09,22.33-69.8,66.02-96,134-60.82,157.84,28.31,302.57,42,324,17.34,27.15,73.45,112.21,185,150,64.2,21.75,120.78,19.04,153,15-2.89,.97-7.03,2.31-12.03,3.72-107.81,30.31-207.54-21.14-228.08-32.34-80.36-43.82-119.3-109.89-134.32-136.14C26.54,376.61-6.05,214.15,78.52,98.54,109.65,55.99,148.09,31.48,174,18Z"/>
  <path class="cls-2" d="M239,60c25.02-7.42,67.81-16.38,119-8,121.01,19.82,182.71,119.2,190.55,132.29,51.92,86.76,53.83,198.29,4.65,283.87-27.15,47.25-63.65,75.73-86.71,90.84,12.33-12.23,95.34-97.43,86.19-228.65-1.18-16.89-11.52-136.08-116.6-214.05-83.4-61.88-172.99-58.1-197.08-56.31Z"/>
  <text class="cls-4" transform="translate(162.73 350.11) scale(.93 1)"><tspan x="0" y="0">ECL</tspan><tspan class="cls-3" x="241.24" y="0">A</tspan><tspan x="319.39" y="0">T</tspan></text>
</svg>